<mxfile host="app.diagrams.net" modified="2023-01-17T12:10:09.088Z" agent="5.0 (Windows NT 10.0; Win64; x64) AppleWebKit/537.36 (KHTML, like Gecko) Chrome/109.0.0.0 Safari/537.36" etag="H3QpQyMbklKJPgeBRZ0b" version="20.8.5" type="github">
  <diagram id="ZF7_wXn1iKlnI-GZJJoU" name="Page-1">
    <mxGraphModel dx="3774" dy="2636" grid="1" gridSize="10" guides="1" tooltips="1" connect="1" arrows="1" fold="1" page="1" pageScale="1" pageWidth="827" pageHeight="1169" math="0" shadow="0">
      <root>
        <mxCell id="0" />
        <mxCell id="1" parent="0" />
        <mxCell id="JyVU8bnQdRgN0_U0z4LO-1" style="edgeStyle=orthogonalEdgeStyle;rounded=0;orthogonalLoop=1;jettySize=auto;html=1;exitX=0.5;exitY=1;exitDx=0;exitDy=0;entryX=0.5;entryY=0;entryDx=0;entryDy=0;fontSize=16;" parent="1" source="JyVU8bnQdRgN0_U0z4LO-2" target="JyVU8bnQdRgN0_U0z4LO-9" edge="1">
          <mxGeometry relative="1" as="geometry" />
        </mxCell>
        <mxCell id="JyVU8bnQdRgN0_U0z4LO-2" value="&lt;font style=&quot;font-size: 24px;&quot;&gt;Se prépare à accueillir une nouvelle image thermique&lt;/font&gt;" style="rounded=0;whiteSpace=wrap;html=1;fillColor=#dae8fc;strokeColor=#6c8ebf;fontSize=16;" parent="1" vertex="1">
          <mxGeometry x="40" y="-1080" width="400" height="70" as="geometry" />
        </mxCell>
        <mxCell id="JyVU8bnQdRgN0_U0z4LO-5" style="edgeStyle=orthogonalEdgeStyle;rounded=0;orthogonalLoop=1;jettySize=auto;html=1;exitX=1;exitY=0.5;exitDx=0;exitDy=0;entryX=0.5;entryY=0;entryDx=0;entryDy=0;strokeColor=#000000;fontSize=16;fontColor=#000000;fillColor=#A680B8;" parent="1" source="JyVU8bnQdRgN0_U0z4LO-7" target="JyVU8bnQdRgN0_U0z4LO-141" edge="1">
          <mxGeometry relative="1" as="geometry" />
        </mxCell>
        <mxCell id="JyVU8bnQdRgN0_U0z4LO-6" value="&lt;font style=&quot;font-size: 24px;&quot;&gt;NON&lt;/font&gt;" style="edgeLabel;html=1;align=center;verticalAlign=middle;resizable=0;points=[];fontSize=16;fontColor=#000000;" parent="JyVU8bnQdRgN0_U0z4LO-5" vertex="1" connectable="0">
          <mxGeometry x="-0.8889" y="-1" relative="1" as="geometry">
            <mxPoint x="79" y="-1" as="offset" />
          </mxGeometry>
        </mxCell>
        <mxCell id="FYO5T30fDV3S0oEtN9Rt-9" style="edgeStyle=orthogonalEdgeStyle;rounded=0;orthogonalLoop=1;jettySize=auto;html=1;exitX=0.5;exitY=1;exitDx=0;exitDy=0;entryX=0.562;entryY=0;entryDx=0;entryDy=0;entryPerimeter=0;fontSize=24;" parent="1" source="JyVU8bnQdRgN0_U0z4LO-7" target="JyVU8bnQdRgN0_U0z4LO-11" edge="1">
          <mxGeometry relative="1" as="geometry" />
        </mxCell>
        <mxCell id="FYO5T30fDV3S0oEtN9Rt-10" value="OUI" style="edgeLabel;html=1;align=center;verticalAlign=middle;resizable=0;points=[];fontSize=24;" parent="FYO5T30fDV3S0oEtN9Rt-9" vertex="1" connectable="0">
          <mxGeometry x="-0.2576" y="1" relative="1" as="geometry">
            <mxPoint y="-1" as="offset" />
          </mxGeometry>
        </mxCell>
        <mxCell id="JyVU8bnQdRgN0_U0z4LO-7" value="&lt;font style=&quot;font-size: 24px;&quot;&gt;Mode Polling&lt;/font&gt;" style="rhombus;whiteSpace=wrap;html=1;fillColor=#fff2cc;strokeColor=#d6b656;fontSize=16;" parent="1" vertex="1">
          <mxGeometry x="160" y="-910" width="160" height="90" as="geometry" />
        </mxCell>
        <mxCell id="FYO5T30fDV3S0oEtN9Rt-8" style="edgeStyle=orthogonalEdgeStyle;rounded=0;orthogonalLoop=1;jettySize=auto;html=1;exitX=0.5;exitY=1;exitDx=0;exitDy=0;fontSize=24;" parent="1" source="JyVU8bnQdRgN0_U0z4LO-9" edge="1">
          <mxGeometry relative="1" as="geometry">
            <mxPoint x="239.71428571428578" y="-930" as="targetPoint" />
          </mxGeometry>
        </mxCell>
        <mxCell id="JyVU8bnQdRgN0_U0z4LO-9" value="&lt;font style=&quot;font-size: 24px;&quot;&gt;I = 0&lt;/font&gt;" style="rounded=0;whiteSpace=wrap;html=1;fillColor=#dae8fc;strokeColor=#6c8ebf;fontSize=16;" parent="1" vertex="1">
          <mxGeometry x="207.5" y="-990" width="65" height="30" as="geometry" />
        </mxCell>
        <mxCell id="7dF-0noHIkKO-9LLiGla-7" style="edgeStyle=orthogonalEdgeStyle;rounded=0;orthogonalLoop=1;jettySize=auto;html=1;exitX=0.5;exitY=1;exitDx=0;exitDy=0;entryX=0.5;entryY=0;entryDx=0;entryDy=0;strokeColor=#000000;fontSize=24;fillColor=#FF0000;" edge="1" parent="1" source="JyVU8bnQdRgN0_U0z4LO-11" target="JyVU8bnQdRgN0_U0z4LO-81">
          <mxGeometry relative="1" as="geometry" />
        </mxCell>
        <mxCell id="JyVU8bnQdRgN0_U0z4LO-11" value="" style="swimlane;startSize=0;fontSize=16;strokeColor=#990000;" parent="1" vertex="1">
          <mxGeometry x="-750" y="-700" width="1760" height="1800" as="geometry" />
        </mxCell>
        <mxCell id="JyVU8bnQdRgN0_U0z4LO-12" style="edgeStyle=orthogonalEdgeStyle;rounded=0;orthogonalLoop=1;jettySize=auto;html=1;exitX=0.5;exitY=1;exitDx=0;exitDy=0;entryX=0.509;entryY=-0.039;entryDx=0;entryDy=0;entryPerimeter=0;fontSize=16;" parent="JyVU8bnQdRgN0_U0z4LO-11" source="JyVU8bnQdRgN0_U0z4LO-13" target="JyVU8bnQdRgN0_U0z4LO-19" edge="1">
          <mxGeometry relative="1" as="geometry" />
        </mxCell>
        <mxCell id="JyVU8bnQdRgN0_U0z4LO-13" value="&lt;font style=&quot;font-size: 24px;&quot;&gt;Récupère l&#39;état de la connexion entre PIX Connect et PA&lt;/font&gt;" style="rounded=0;whiteSpace=wrap;html=1;fillColor=#dae8fc;strokeColor=#6c8ebf;fontSize=16;" parent="JyVU8bnQdRgN0_U0z4LO-11" vertex="1">
          <mxGeometry x="680" y="40" width="480" height="60" as="geometry" />
        </mxCell>
        <mxCell id="JyVU8bnQdRgN0_U0z4LO-14" value="&lt;font style=&quot;font-size: 24px;&quot;&gt;Initialise le mode Polling&lt;/font&gt;" style="text;html=1;align=center;verticalAlign=middle;resizable=0;points=[];autosize=1;strokeColor=none;fillColor=none;fontSize=16;" parent="JyVU8bnQdRgN0_U0z4LO-11" vertex="1">
          <mxGeometry x="1470" width="280" height="40" as="geometry" />
        </mxCell>
        <mxCell id="JyVU8bnQdRgN0_U0z4LO-15" style="edgeStyle=orthogonalEdgeStyle;rounded=0;orthogonalLoop=1;jettySize=auto;html=1;exitX=1;exitY=0.5;exitDx=0;exitDy=0;entryX=0.5;entryY=0;entryDx=0;entryDy=0;fontSize=16;" parent="JyVU8bnQdRgN0_U0z4LO-11" source="JyVU8bnQdRgN0_U0z4LO-19" target="JyVU8bnQdRgN0_U0z4LO-27" edge="1">
          <mxGeometry relative="1" as="geometry">
            <mxPoint x="660" y="140" as="targetPoint" />
          </mxGeometry>
        </mxCell>
        <mxCell id="JyVU8bnQdRgN0_U0z4LO-16" value="&lt;font style=&quot;font-size: 24px;&quot;&gt;Réussite&lt;/font&gt;" style="edgeLabel;html=1;align=center;verticalAlign=middle;resizable=0;points=[];fontSize=16;" parent="JyVU8bnQdRgN0_U0z4LO-15" vertex="1" connectable="0">
          <mxGeometry x="0.0426" y="-1" relative="1" as="geometry">
            <mxPoint x="-153" y="-1" as="offset" />
          </mxGeometry>
        </mxCell>
        <mxCell id="JyVU8bnQdRgN0_U0z4LO-17" style="edgeStyle=orthogonalEdgeStyle;rounded=0;orthogonalLoop=1;jettySize=auto;html=1;exitX=0;exitY=0.5;exitDx=0;exitDy=0;entryX=0.5;entryY=0;entryDx=0;entryDy=0;fontSize=16;" parent="JyVU8bnQdRgN0_U0z4LO-11" source="JyVU8bnQdRgN0_U0z4LO-19" target="JyVU8bnQdRgN0_U0z4LO-20" edge="1">
          <mxGeometry relative="1" as="geometry" />
        </mxCell>
        <mxCell id="JyVU8bnQdRgN0_U0z4LO-18" value="&lt;font style=&quot;font-size: 24px;&quot;&gt;Echec&lt;/font&gt;" style="edgeLabel;html=1;align=center;verticalAlign=middle;resizable=0;points=[];fontSize=16;" parent="JyVU8bnQdRgN0_U0z4LO-17" vertex="1" connectable="0">
          <mxGeometry x="-0.6032" relative="1" as="geometry">
            <mxPoint x="31" as="offset" />
          </mxGeometry>
        </mxCell>
        <mxCell id="JyVU8bnQdRgN0_U0z4LO-19" value="&lt;font style=&quot;font-size: 24px;&quot;&gt;Etat connexion&lt;/font&gt;" style="rhombus;whiteSpace=wrap;html=1;fillColor=#fff2cc;strokeColor=#d6b656;fontSize=16;" parent="JyVU8bnQdRgN0_U0z4LO-11" vertex="1">
          <mxGeometry x="400" y="160" width="240" height="95" as="geometry" />
        </mxCell>
        <mxCell id="JyVU8bnQdRgN0_U0z4LO-20" value="" style="swimlane;startSize=0;fontSize=16;" parent="JyVU8bnQdRgN0_U0z4LO-11" vertex="1">
          <mxGeometry x="40" y="310" width="160" height="470" as="geometry" />
        </mxCell>
        <mxCell id="JyVU8bnQdRgN0_U0z4LO-21" value="&lt;font style=&quot;font-size: 24px;&quot;&gt;Evènement &lt;br&gt;arrêt &lt;br&gt;serveur&lt;/font&gt;" style="text;html=1;align=right;verticalAlign=middle;resizable=0;points=[];autosize=1;strokeColor=none;fillColor=none;fontSize=16;" parent="JyVU8bnQdRgN0_U0z4LO-20" vertex="1">
          <mxGeometry x="10" width="140" height="100" as="geometry" />
        </mxCell>
        <mxCell id="JyVU8bnQdRgN0_U0z4LO-22" style="edgeStyle=orthogonalEdgeStyle;rounded=0;orthogonalLoop=1;jettySize=auto;html=1;exitX=0.5;exitY=1;exitDx=0;exitDy=0;entryX=0.5;entryY=0;entryDx=0;entryDy=0;fontSize=16;" parent="JyVU8bnQdRgN0_U0z4LO-20" source="JyVU8bnQdRgN0_U0z4LO-23" target="JyVU8bnQdRgN0_U0z4LO-25" edge="1">
          <mxGeometry relative="1" as="geometry" />
        </mxCell>
        <mxCell id="JyVU8bnQdRgN0_U0z4LO-23" value="&lt;font style=&quot;font-size: 24px;&quot;&gt;Libère la connexion entre PA et PIX Connect&lt;/font&gt;" style="rounded=0;whiteSpace=wrap;html=1;fillColor=#dae8fc;strokeColor=#6c8ebf;fontSize=16;" parent="JyVU8bnQdRgN0_U0z4LO-20" vertex="1">
          <mxGeometry x="10" y="110" width="140" height="140" as="geometry" />
        </mxCell>
        <mxCell id="JyVU8bnQdRgN0_U0z4LO-24" style="edgeStyle=orthogonalEdgeStyle;rounded=0;orthogonalLoop=1;jettySize=auto;html=1;exitX=0.5;exitY=1;exitDx=0;exitDy=0;entryX=0.5;entryY=0;entryDx=0;entryDy=0;strokeColor=#000000;fontSize=16;fontColor=#000000;fillColor=#A680B8;" parent="JyVU8bnQdRgN0_U0z4LO-20" source="JyVU8bnQdRgN0_U0z4LO-25" target="JyVU8bnQdRgN0_U0z4LO-26" edge="1">
          <mxGeometry relative="1" as="geometry" />
        </mxCell>
        <mxCell id="JyVU8bnQdRgN0_U0z4LO-25" value="&lt;font style=&quot;font-size: 24px;&quot;&gt;Affiche écran noir&lt;/font&gt;" style="rounded=0;whiteSpace=wrap;html=1;fillColor=#dae8fc;strokeColor=#6c8ebf;fontSize=16;" parent="JyVU8bnQdRgN0_U0z4LO-20" vertex="1">
          <mxGeometry x="10" y="280" width="140" height="70" as="geometry" />
        </mxCell>
        <mxCell id="JyVU8bnQdRgN0_U0z4LO-26" value="&lt;font style=&quot;font-size: 24px;&quot;&gt;Fin Timer&lt;/font&gt;" style="rounded=1;whiteSpace=wrap;html=1;fontSize=16;fontColor=#000000;fillColor=#EA6B66;" parent="JyVU8bnQdRgN0_U0z4LO-20" vertex="1">
          <mxGeometry x="20" y="380" width="120" height="60" as="geometry" />
        </mxCell>
        <mxCell id="JyVU8bnQdRgN0_U0z4LO-27" value="" style="swimlane;startSize=0;fontSize=16;strokeColor=#990000;" parent="JyVU8bnQdRgN0_U0z4LO-11" vertex="1">
          <mxGeometry x="240" y="310" width="1470" height="1460" as="geometry">
            <mxRectangle x="240" y="310" width="50" height="40" as="alternateBounds" />
          </mxGeometry>
        </mxCell>
        <mxCell id="JyVU8bnQdRgN0_U0z4LO-28" value="&lt;font style=&quot;font-size: 24px;&quot;&gt;Evènement Réception Image&lt;/font&gt;" style="text;html=1;align=center;verticalAlign=middle;resizable=0;points=[];autosize=1;strokeColor=none;fillColor=none;fontSize=16;" parent="JyVU8bnQdRgN0_U0z4LO-27" vertex="1">
          <mxGeometry x="1130" width="330" height="40" as="geometry" />
        </mxCell>
        <mxCell id="JyVU8bnQdRgN0_U0z4LO-29" style="edgeStyle=orthogonalEdgeStyle;rounded=0;orthogonalLoop=1;jettySize=auto;html=1;exitX=0.5;exitY=1;exitDx=0;exitDy=0;entryX=0.5;entryY=0;entryDx=0;entryDy=0;fontSize=16;" parent="JyVU8bnQdRgN0_U0z4LO-27" source="JyVU8bnQdRgN0_U0z4LO-30" target="JyVU8bnQdRgN0_U0z4LO-32" edge="1">
          <mxGeometry relative="1" as="geometry" />
        </mxCell>
        <mxCell id="JyVU8bnQdRgN0_U0z4LO-30" value="&lt;font style=&quot;font-size: 24px;&quot;&gt;Réception les dimensions de l&#39;image thermique issue de PIX Connect&lt;/font&gt;" style="rounded=0;whiteSpace=wrap;html=1;fillColor=#dae8fc;strokeColor=#6c8ebf;fontSize=16;" parent="JyVU8bnQdRgN0_U0z4LO-27" vertex="1">
          <mxGeometry x="320" y="40" width="810" height="60" as="geometry" />
        </mxCell>
        <mxCell id="JyVU8bnQdRgN0_U0z4LO-31" style="edgeStyle=orthogonalEdgeStyle;rounded=0;orthogonalLoop=1;jettySize=auto;html=1;exitX=0.5;exitY=1;exitDx=0;exitDy=0;entryX=0.5;entryY=0;entryDx=0;entryDy=0;strokeColor=#000000;fontSize=16;fontColor=#000000;fillColor=#A680B8;" parent="JyVU8bnQdRgN0_U0z4LO-27" source="JyVU8bnQdRgN0_U0z4LO-32" target="JyVU8bnQdRgN0_U0z4LO-34" edge="1">
          <mxGeometry relative="1" as="geometry" />
        </mxCell>
        <mxCell id="JyVU8bnQdRgN0_U0z4LO-32" value="&lt;font style=&quot;font-size: 24px;&quot;&gt;Reçoit le Buffer de données envoyé par PIX Connect&lt;/font&gt;" style="rounded=0;whiteSpace=wrap;html=1;fillColor=#dae8fc;strokeColor=#6c8ebf;fontSize=16;" parent="JyVU8bnQdRgN0_U0z4LO-27" vertex="1">
          <mxGeometry x="405" y="120" width="640" height="50" as="geometry" />
        </mxCell>
        <mxCell id="JyVU8bnQdRgN0_U0z4LO-33" style="edgeStyle=orthogonalEdgeStyle;rounded=0;orthogonalLoop=1;jettySize=auto;html=1;exitX=0.5;exitY=1;exitDx=0;exitDy=0;entryX=0.5;entryY=0;entryDx=0;entryDy=0;strokeColor=#000000;fontSize=16;fontColor=#000000;fillColor=#A680B8;" parent="JyVU8bnQdRgN0_U0z4LO-27" source="JyVU8bnQdRgN0_U0z4LO-34" target="JyVU8bnQdRgN0_U0z4LO-36" edge="1">
          <mxGeometry relative="1" as="geometry" />
        </mxCell>
        <mxCell id="JyVU8bnQdRgN0_U0z4LO-34" value="&lt;font style=&quot;font-size: 24px;&quot;&gt;Converti le buffer en un Bitmap de dimensions définies précédemment&amp;nbsp;&lt;/font&gt;" style="rounded=0;whiteSpace=wrap;html=1;fontSize=16;fillColor=#dae8fc;strokeColor=#6c8ebf;" parent="JyVU8bnQdRgN0_U0z4LO-27" vertex="1">
          <mxGeometry x="295" y="200" width="860" height="40" as="geometry" />
        </mxCell>
        <mxCell id="JyVU8bnQdRgN0_U0z4LO-35" style="edgeStyle=orthogonalEdgeStyle;rounded=0;orthogonalLoop=1;jettySize=auto;html=1;exitX=0.5;exitY=1;exitDx=0;exitDy=0;entryX=0.5;entryY=0;entryDx=0;entryDy=0;strokeColor=#000000;fontSize=16;fontColor=#000000;fillColor=#A680B8;" parent="JyVU8bnQdRgN0_U0z4LO-27" source="JyVU8bnQdRgN0_U0z4LO-36" target="JyVU8bnQdRgN0_U0z4LO-37" edge="1">
          <mxGeometry relative="1" as="geometry" />
        </mxCell>
        <mxCell id="JyVU8bnQdRgN0_U0z4LO-36" value="&lt;font style=&quot;font-size: 24px;&quot;&gt;Déclenche l&#39;évènemment d&#39;affichage de l&#39;image thermique à l&#39;utilisateur&lt;/font&gt;" style="rounded=0;whiteSpace=wrap;html=1;fontSize=16;fillColor=#dae8fc;strokeColor=#6c8ebf;" parent="JyVU8bnQdRgN0_U0z4LO-27" vertex="1">
          <mxGeometry x="310" y="260" width="830" height="50" as="geometry" />
        </mxCell>
        <mxCell id="JyVU8bnQdRgN0_U0z4LO-37" value="" style="swimlane;startSize=0;fontSize=16;fontColor=#000000;fillColor=#EA6B66;strokeColor=#990000;" parent="JyVU8bnQdRgN0_U0z4LO-27" vertex="1">
          <mxGeometry x="40" y="350" width="1370" height="1080" as="geometry" />
        </mxCell>
        <mxCell id="FYO5T30fDV3S0oEtN9Rt-3" style="edgeStyle=orthogonalEdgeStyle;rounded=0;orthogonalLoop=1;jettySize=auto;html=1;entryX=0.5;entryY=0;entryDx=0;entryDy=0;fontSize=24;" parent="JyVU8bnQdRgN0_U0z4LO-37" source="JyVU8bnQdRgN0_U0z4LO-39" target="JyVU8bnQdRgN0_U0z4LO-43" edge="1">
          <mxGeometry relative="1" as="geometry" />
        </mxCell>
        <mxCell id="JyVU8bnQdRgN0_U0z4LO-39" value="&lt;font style=&quot;font-size: 24px;&quot;&gt;Redimensionne l&#39;image thermique (382x288) pour s&#39;adapter à la taille de la fenêtre&lt;/font&gt;" style="rounded=0;whiteSpace=wrap;html=1;fontSize=16;fillColor=#dae8fc;strokeColor=#6c8ebf;" parent="JyVU8bnQdRgN0_U0z4LO-37" vertex="1">
          <mxGeometry x="407" y="40" width="620" height="70" as="geometry" />
        </mxCell>
        <mxCell id="JyVU8bnQdRgN0_U0z4LO-40" style="edgeStyle=orthogonalEdgeStyle;rounded=0;orthogonalLoop=1;jettySize=auto;html=1;exitX=1;exitY=0.5;exitDx=0;exitDy=0;entryX=0.5;entryY=0;entryDx=0;entryDy=0;strokeColor=#000000;fontSize=16;fontColor=#000000;fillColor=#A680B8;" parent="JyVU8bnQdRgN0_U0z4LO-37" source="JyVU8bnQdRgN0_U0z4LO-43" target="JyVU8bnQdRgN0_U0z4LO-45" edge="1">
          <mxGeometry relative="1" as="geometry" />
        </mxCell>
        <mxCell id="JyVU8bnQdRgN0_U0z4LO-41" value="&lt;font style=&quot;font-size: 24px;&quot;&gt;NON&lt;/font&gt;" style="edgeLabel;html=1;align=center;verticalAlign=middle;resizable=0;points=[];fontSize=16;fontColor=#000000;" parent="JyVU8bnQdRgN0_U0z4LO-40" vertex="1" connectable="0">
          <mxGeometry x="-0.8377" relative="1" as="geometry">
            <mxPoint x="88" as="offset" />
          </mxGeometry>
        </mxCell>
        <mxCell id="JyVU8bnQdRgN0_U0z4LO-42" value="&lt;font style=&quot;font-size: 24px;&quot;&gt;OUI&lt;/font&gt;" style="edgeStyle=orthogonalEdgeStyle;rounded=0;orthogonalLoop=1;jettySize=auto;html=1;exitX=0;exitY=0.5;exitDx=0;exitDy=0;entryX=0.5;entryY=0;entryDx=0;entryDy=0;strokeColor=#000000;fontSize=16;fontColor=#000000;fillColor=#A680B8;" parent="JyVU8bnQdRgN0_U0z4LO-37" source="JyVU8bnQdRgN0_U0z4LO-43" target="JyVU8bnQdRgN0_U0z4LO-53" edge="1">
          <mxGeometry x="-0.4998" relative="1" as="geometry">
            <mxPoint as="offset" />
          </mxGeometry>
        </mxCell>
        <mxCell id="JyVU8bnQdRgN0_U0z4LO-43" value="&lt;font style=&quot;font-size: 24px;&quot;&gt;Mode auto&lt;/font&gt;" style="rhombus;whiteSpace=wrap;html=1;fontSize=16;fillColor=#fff2cc;strokeColor=#d6b656;" parent="JyVU8bnQdRgN0_U0z4LO-37" vertex="1">
          <mxGeometry x="627" y="160" width="180" height="80" as="geometry" />
        </mxCell>
        <mxCell id="JyVU8bnQdRgN0_U0z4LO-44" style="edgeStyle=orthogonalEdgeStyle;rounded=0;orthogonalLoop=1;jettySize=auto;html=1;exitX=0.5;exitY=1;exitDx=0;exitDy=0;entryX=0.5;entryY=0;entryDx=0;entryDy=0;strokeColor=#000000;fontSize=16;fontColor=#000000;fillColor=#A680B8;" parent="JyVU8bnQdRgN0_U0z4LO-37" source="JyVU8bnQdRgN0_U0z4LO-45" target="JyVU8bnQdRgN0_U0z4LO-72" edge="1">
          <mxGeometry relative="1" as="geometry" />
        </mxCell>
        <mxCell id="JyVU8bnQdRgN0_U0z4LO-45" value="&lt;font style=&quot;font-size: 24px;&quot;&gt;Communique avec PIX Connect pour obtenir et sauvegarder la température de chaque zone (hormis les 2 premières zones qui sont destinées la température maximale et minimale&lt;/font&gt;" style="rounded=0;whiteSpace=wrap;html=1;fontSize=16;fillColor=#dae8fc;strokeColor=#6c8ebf;" parent="JyVU8bnQdRgN0_U0z4LO-37" vertex="1">
          <mxGeometry x="740" y="260" width="602" height="150" as="geometry" />
        </mxCell>
        <mxCell id="JyVU8bnQdRgN0_U0z4LO-46" value="&lt;font style=&quot;font-size: 24px;&quot;&gt;OUI&lt;/font&gt;" style="edgeStyle=orthogonalEdgeStyle;rounded=0;orthogonalLoop=1;jettySize=auto;html=1;exitX=0;exitY=0.5;exitDx=0;exitDy=0;entryX=0.5;entryY=0;entryDx=0;entryDy=0;strokeColor=#000000;fontSize=16;fontColor=#000000;fillColor=#A680B8;" parent="JyVU8bnQdRgN0_U0z4LO-37" source="JyVU8bnQdRgN0_U0z4LO-49" target="JyVU8bnQdRgN0_U0z4LO-60" edge="1">
          <mxGeometry x="-0.3142" relative="1" as="geometry">
            <mxPoint as="offset" />
          </mxGeometry>
        </mxCell>
        <mxCell id="JyVU8bnQdRgN0_U0z4LO-47" style="edgeStyle=orthogonalEdgeStyle;rounded=0;orthogonalLoop=1;jettySize=auto;html=1;exitX=1;exitY=0.5;exitDx=0;exitDy=0;entryX=0.5;entryY=0;entryDx=0;entryDy=0;strokeColor=#000000;fontSize=16;fontColor=#000000;fillColor=#A680B8;" parent="JyVU8bnQdRgN0_U0z4LO-37" source="JyVU8bnQdRgN0_U0z4LO-49" target="JyVU8bnQdRgN0_U0z4LO-65" edge="1">
          <mxGeometry relative="1" as="geometry" />
        </mxCell>
        <mxCell id="JyVU8bnQdRgN0_U0z4LO-48" value="&lt;font style=&quot;font-size: 24px;&quot;&gt;NON&lt;/font&gt;" style="edgeLabel;html=1;align=center;verticalAlign=middle;resizable=0;points=[];fontSize=16;fontColor=#000000;" parent="JyVU8bnQdRgN0_U0z4LO-47" vertex="1" connectable="0">
          <mxGeometry x="-0.6941" relative="1" as="geometry">
            <mxPoint x="13" as="offset" />
          </mxGeometry>
        </mxCell>
        <mxCell id="JyVU8bnQdRgN0_U0z4LO-49" value="&lt;font style=&quot;font-size: 24px;&quot;&gt;Souris en mouvement&lt;/font&gt;" style="rhombus;whiteSpace=wrap;html=1;fontSize=16;fillColor=#fff2cc;strokeColor=#d6b656;" parent="JyVU8bnQdRgN0_U0z4LO-37" vertex="1">
          <mxGeometry x="577" y="480" width="210" height="110" as="geometry" />
        </mxCell>
        <mxCell id="JyVU8bnQdRgN0_U0z4LO-50" value="&lt;font style=&quot;font-size: 24px;&quot;&gt;NON&lt;/font&gt;" style="edgeStyle=orthogonalEdgeStyle;rounded=0;orthogonalLoop=1;jettySize=auto;html=1;exitX=0;exitY=0.5;exitDx=0;exitDy=0;entryX=0.5;entryY=0;entryDx=0;entryDy=0;strokeColor=#000000;fontSize=16;fontColor=#000000;fillColor=#A680B8;" parent="JyVU8bnQdRgN0_U0z4LO-37" source="JyVU8bnQdRgN0_U0z4LO-53" target="JyVU8bnQdRgN0_U0z4LO-57" edge="1">
          <mxGeometry x="-0.6364" relative="1" as="geometry">
            <mxPoint as="offset" />
          </mxGeometry>
        </mxCell>
        <mxCell id="JyVU8bnQdRgN0_U0z4LO-51" style="edgeStyle=orthogonalEdgeStyle;rounded=0;orthogonalLoop=1;jettySize=auto;html=1;exitX=1;exitY=0.5;exitDx=0;exitDy=0;entryX=0.5;entryY=0;entryDx=0;entryDy=0;strokeColor=#000000;fontSize=16;fontColor=#000000;fillColor=#A680B8;" parent="JyVU8bnQdRgN0_U0z4LO-37" source="JyVU8bnQdRgN0_U0z4LO-53" target="JyVU8bnQdRgN0_U0z4LO-49" edge="1">
          <mxGeometry relative="1" as="geometry" />
        </mxCell>
        <mxCell id="JyVU8bnQdRgN0_U0z4LO-52" value="&lt;font style=&quot;font-size: 24px;&quot;&gt;OUI&lt;/font&gt;" style="edgeLabel;html=1;align=center;verticalAlign=middle;resizable=0;points=[];fontSize=16;fontColor=#000000;" parent="JyVU8bnQdRgN0_U0z4LO-51" vertex="1" connectable="0">
          <mxGeometry x="-0.684" y="1" relative="1" as="geometry">
            <mxPoint x="14" y="1" as="offset" />
          </mxGeometry>
        </mxCell>
        <mxCell id="JyVU8bnQdRgN0_U0z4LO-53" value="&lt;font style=&quot;font-size: 24px;&quot;&gt;Nombre souris détectée &amp;gt; 0&lt;/font&gt;" style="rhombus;whiteSpace=wrap;html=1;fontSize=16;fillColor=#fff2cc;strokeColor=#d6b656;" parent="JyVU8bnQdRgN0_U0z4LO-37" vertex="1">
          <mxGeometry x="347" y="360" width="230" height="120" as="geometry" />
        </mxCell>
        <mxCell id="JyVU8bnQdRgN0_U0z4LO-54" value="&lt;font style=&quot;font-size: 24px;&quot;&gt;Affiche &quot;No Mouse Found&quot;&lt;/font&gt;" style="rounded=0;whiteSpace=wrap;html=1;fontSize=16;fillColor=#dae8fc;strokeColor=#6c8ebf;" parent="JyVU8bnQdRgN0_U0z4LO-37" vertex="1">
          <mxGeometry x="57" y="750" width="100" height="140" as="geometry" />
        </mxCell>
        <mxCell id="JyVU8bnQdRgN0_U0z4LO-55" value="&lt;font style=&quot;font-size: 24px;&quot;&gt;OUI&lt;/font&gt;" style="edgeStyle=orthogonalEdgeStyle;rounded=0;orthogonalLoop=1;jettySize=auto;html=1;exitX=0;exitY=0.5;exitDx=0;exitDy=0;entryX=0.5;entryY=0;entryDx=0;entryDy=0;strokeColor=#000000;fontSize=16;fontColor=#000000;fillColor=#A680B8;" parent="JyVU8bnQdRgN0_U0z4LO-37" source="JyVU8bnQdRgN0_U0z4LO-57" target="JyVU8bnQdRgN0_U0z4LO-54" edge="1">
          <mxGeometry x="-0.6667" relative="1" as="geometry">
            <mxPoint as="offset" />
          </mxGeometry>
        </mxCell>
        <mxCell id="JyVU8bnQdRgN0_U0z4LO-56" value="&lt;font style=&quot;font-size: 24px;&quot;&gt;NON&lt;/font&gt;" style="edgeStyle=orthogonalEdgeStyle;rounded=0;orthogonalLoop=1;jettySize=auto;html=1;exitX=1;exitY=0.5;exitDx=0;exitDy=0;entryX=0.5;entryY=0;entryDx=0;entryDy=0;strokeColor=#000000;fontSize=16;fontColor=#000000;fillColor=#A680B8;" parent="JyVU8bnQdRgN0_U0z4LO-37" source="JyVU8bnQdRgN0_U0z4LO-57" target="JyVU8bnQdRgN0_U0z4LO-58" edge="1">
          <mxGeometry x="-0.6667" relative="1" as="geometry">
            <mxPoint as="offset" />
          </mxGeometry>
        </mxCell>
        <mxCell id="JyVU8bnQdRgN0_U0z4LO-57" value="&lt;font style=&quot;font-size: 24px;&quot;&gt;L&#39;IA est chargé&amp;nbsp;&lt;/font&gt;" style="rhombus;whiteSpace=wrap;html=1;fontSize=16;fillColor=#fff2cc;strokeColor=#d6b656;" parent="JyVU8bnQdRgN0_U0z4LO-37" vertex="1">
          <mxGeometry x="167" y="570" width="120" height="120" as="geometry" />
        </mxCell>
        <mxCell id="JyVU8bnQdRgN0_U0z4LO-58" value="&lt;font style=&quot;font-size: 24px;&quot;&gt;Affiche &quot;Loading IA&quot;&lt;/font&gt;" style="rounded=0;whiteSpace=wrap;html=1;fontSize=16;fillColor=#dae8fc;strokeColor=#6c8ebf;" parent="JyVU8bnQdRgN0_U0z4LO-37" vertex="1">
          <mxGeometry x="267" y="750" width="140" height="90" as="geometry" />
        </mxCell>
        <mxCell id="FYO5T30fDV3S0oEtN9Rt-4" style="edgeStyle=orthogonalEdgeStyle;rounded=0;orthogonalLoop=1;jettySize=auto;html=1;exitX=0.5;exitY=1;exitDx=0;exitDy=0;fontSize=24;" parent="JyVU8bnQdRgN0_U0z4LO-37" source="JyVU8bnQdRgN0_U0z4LO-60" target="JyVU8bnQdRgN0_U0z4LO-70" edge="1">
          <mxGeometry relative="1" as="geometry" />
        </mxCell>
        <mxCell id="JyVU8bnQdRgN0_U0z4LO-60" value="&lt;font style=&quot;font-size: 24px;&quot;&gt;Place sur l&#39;image thermique au niveau des coordonnées des souris (transmis par Python) le numéro de la souris&lt;br&gt;=&amp;gt; Permet d&#39;identifier les souris&lt;/font&gt;" style="rounded=0;whiteSpace=wrap;html=1;fontSize=16;fillColor=#dae8fc;strokeColor=#6c8ebf;" parent="JyVU8bnQdRgN0_U0z4LO-37" vertex="1">
          <mxGeometry x="427" y="600" width="200" height="350" as="geometry" />
        </mxCell>
        <mxCell id="JyVU8bnQdRgN0_U0z4LO-61" style="edgeStyle=orthogonalEdgeStyle;rounded=0;orthogonalLoop=1;jettySize=auto;html=1;exitX=0;exitY=0.5;exitDx=0;exitDy=0;entryX=0.5;entryY=0;entryDx=0;entryDy=0;strokeColor=#000000;fontSize=16;fontColor=#000000;fillColor=#A680B8;" parent="JyVU8bnQdRgN0_U0z4LO-37" source="JyVU8bnQdRgN0_U0z4LO-65" target="JyVU8bnQdRgN0_U0z4LO-67" edge="1">
          <mxGeometry relative="1" as="geometry" />
        </mxCell>
        <mxCell id="JyVU8bnQdRgN0_U0z4LO-62" value="&lt;font style=&quot;font-size: 24px;&quot;&gt;NON&lt;/font&gt;" style="edgeLabel;html=1;align=center;verticalAlign=middle;resizable=0;points=[];fontSize=16;fontColor=#000000;" parent="JyVU8bnQdRgN0_U0z4LO-61" vertex="1" connectable="0">
          <mxGeometry x="-0.5913" relative="1" as="geometry">
            <mxPoint x="-8" as="offset" />
          </mxGeometry>
        </mxCell>
        <mxCell id="JyVU8bnQdRgN0_U0z4LO-63" style="edgeStyle=orthogonalEdgeStyle;rounded=0;orthogonalLoop=1;jettySize=auto;html=1;exitX=1;exitY=0.5;exitDx=0;exitDy=0;entryX=0.5;entryY=0;entryDx=0;entryDy=0;strokeColor=#000000;fontSize=16;fontColor=#000000;fillColor=#A680B8;" parent="JyVU8bnQdRgN0_U0z4LO-37" source="JyVU8bnQdRgN0_U0z4LO-65" target="JyVU8bnQdRgN0_U0z4LO-69" edge="1">
          <mxGeometry relative="1" as="geometry" />
        </mxCell>
        <mxCell id="JyVU8bnQdRgN0_U0z4LO-64" value="&lt;font style=&quot;font-size: 24px;&quot;&gt;OUI&lt;/font&gt;" style="edgeLabel;html=1;align=center;verticalAlign=middle;resizable=0;points=[];fontSize=16;fontColor=#000000;" parent="JyVU8bnQdRgN0_U0z4LO-63" vertex="1" connectable="0">
          <mxGeometry x="-0.6376" y="1" relative="1" as="geometry">
            <mxPoint x="10" y="1" as="offset" />
          </mxGeometry>
        </mxCell>
        <mxCell id="JyVU8bnQdRgN0_U0z4LO-65" value="&lt;font style=&quot;font-size: 24px;&quot;&gt;Image &lt;br&gt;RGB&lt;/font&gt;" style="rhombus;whiteSpace=wrap;html=1;fontSize=16;fillColor=#fff2cc;strokeColor=#d6b656;" parent="JyVU8bnQdRgN0_U0z4LO-37" vertex="1">
          <mxGeometry x="807" y="620" width="140" height="80" as="geometry" />
        </mxCell>
        <mxCell id="JyVU8bnQdRgN0_U0z4LO-67" value="&lt;font style=&quot;font-size: 24px;&quot;&gt;Affiche les maks des souris sur l&#39;image thermique (avec opacité à 30%)&lt;/font&gt;" style="rounded=0;whiteSpace=wrap;html=1;fontSize=16;fillColor=#dae8fc;strokeColor=#6c8ebf;" parent="JyVU8bnQdRgN0_U0z4LO-37" vertex="1">
          <mxGeometry x="672" y="710" width="150" height="240" as="geometry" />
        </mxCell>
        <mxCell id="JyVU8bnQdRgN0_U0z4LO-69" value="&lt;font style=&quot;font-size: 24px;&quot;&gt;Affiche les maks des souris sur l&#39;image thermique (avec opacité à 50%)&lt;/font&gt;" style="rounded=0;whiteSpace=wrap;html=1;fontSize=16;fillColor=#dae8fc;strokeColor=#6c8ebf;" parent="JyVU8bnQdRgN0_U0z4LO-37" vertex="1">
          <mxGeometry x="931" y="710" width="150" height="240" as="geometry" />
        </mxCell>
        <mxCell id="JyVU8bnQdRgN0_U0z4LO-70" value="&lt;font style=&quot;font-size: 24px;&quot;&gt;Affiche l&#39;image thermique modifiée&lt;/font&gt;" style="rounded=0;whiteSpace=wrap;html=1;fontSize=16;fillColor=#f8cecc;strokeColor=#b85450;" parent="JyVU8bnQdRgN0_U0z4LO-37" vertex="1">
          <mxGeometry x="532" y="1000" width="430" height="50" as="geometry" />
        </mxCell>
        <mxCell id="JyVU8bnQdRgN0_U0z4LO-71" style="edgeStyle=orthogonalEdgeStyle;rounded=0;orthogonalLoop=1;jettySize=auto;html=1;exitX=0.5;exitY=1;exitDx=0;exitDy=0;entryX=0.5;entryY=0;entryDx=0;entryDy=0;strokeColor=#000000;fontSize=16;fontColor=#000000;fillColor=#A680B8;" parent="JyVU8bnQdRgN0_U0z4LO-37" source="JyVU8bnQdRgN0_U0z4LO-72" target="JyVU8bnQdRgN0_U0z4LO-74" edge="1">
          <mxGeometry relative="1" as="geometry" />
        </mxCell>
        <mxCell id="JyVU8bnQdRgN0_U0z4LO-72" value="&lt;font style=&quot;font-size: 24px;&quot;&gt;Trace des rectangles en fonction des coordonnées des ROIs préalablement tracée manuellement par l&#39;utilisateur.&lt;/font&gt;" style="rounded=0;whiteSpace=wrap;html=1;fontSize=16;fillColor=#dae8fc;strokeColor=#6c8ebf;" parent="JyVU8bnQdRgN0_U0z4LO-37" vertex="1">
          <mxGeometry x="1032" y="470" width="310" height="170" as="geometry" />
        </mxCell>
        <mxCell id="FYO5T30fDV3S0oEtN9Rt-7" style="edgeStyle=orthogonalEdgeStyle;rounded=0;orthogonalLoop=1;jettySize=auto;html=1;exitX=0.5;exitY=1;exitDx=0;exitDy=0;entryX=0.5;entryY=0;entryDx=0;entryDy=0;fontSize=24;" parent="JyVU8bnQdRgN0_U0z4LO-37" source="JyVU8bnQdRgN0_U0z4LO-74" target="JyVU8bnQdRgN0_U0z4LO-70" edge="1">
          <mxGeometry relative="1" as="geometry" />
        </mxCell>
        <mxCell id="JyVU8bnQdRgN0_U0z4LO-74" value="&lt;font style=&quot;font-size: 24px;&quot;&gt;Ecrit le numéro de la zone au dessus du rectangle&lt;/font&gt;" style="rounded=0;whiteSpace=wrap;html=1;fontSize=16;fillColor=#dae8fc;strokeColor=#6c8ebf;" parent="JyVU8bnQdRgN0_U0z4LO-37" vertex="1">
          <mxGeometry x="1107" y="750" width="160" height="200" as="geometry" />
        </mxCell>
        <mxCell id="FYO5T30fDV3S0oEtN9Rt-6" style="edgeStyle=orthogonalEdgeStyle;rounded=0;orthogonalLoop=1;jettySize=auto;html=1;exitX=0.5;exitY=1;exitDx=0;exitDy=0;fontSize=24;entryX=0.5;entryY=0;entryDx=0;entryDy=0;" parent="JyVU8bnQdRgN0_U0z4LO-37" source="JyVU8bnQdRgN0_U0z4LO-69" target="JyVU8bnQdRgN0_U0z4LO-70" edge="1">
          <mxGeometry relative="1" as="geometry">
            <mxPoint x="750" y="1000" as="targetPoint" />
          </mxGeometry>
        </mxCell>
        <mxCell id="JyVU8bnQdRgN0_U0z4LO-77" style="edgeStyle=orthogonalEdgeStyle;rounded=0;orthogonalLoop=1;jettySize=auto;html=1;exitX=1;exitY=0.5;exitDx=0;exitDy=0;entryX=0.5;entryY=0;entryDx=0;entryDy=0;strokeColor=#000000;fontSize=16;fontColor=#000000;fillColor=#FF0000;" parent="1" source="JyVU8bnQdRgN0_U0z4LO-79" target="JyVU8bnQdRgN0_U0z4LO-7" edge="1">
          <mxGeometry relative="1" as="geometry">
            <Array as="points">
              <mxPoint x="1060" y="1230" />
              <mxPoint x="1060" y="-940" />
              <mxPoint x="240" y="-940" />
            </Array>
          </mxGeometry>
        </mxCell>
        <mxCell id="JyVU8bnQdRgN0_U0z4LO-78" value="&lt;font style=&quot;font-size: 24px;&quot;&gt;NON&lt;/font&gt;" style="edgeLabel;html=1;align=center;verticalAlign=middle;resizable=0;points=[];fontSize=16;fontColor=#000000;" parent="JyVU8bnQdRgN0_U0z4LO-77" vertex="1" connectable="0">
          <mxGeometry x="-0.9754" y="5" relative="1" as="geometry">
            <mxPoint x="29" y="5" as="offset" />
          </mxGeometry>
        </mxCell>
        <mxCell id="7dF-0noHIkKO-9LLiGla-10" style="edgeStyle=orthogonalEdgeStyle;rounded=0;orthogonalLoop=1;jettySize=auto;html=1;exitX=0.5;exitY=1;exitDx=0;exitDy=0;entryX=0.5;entryY=0;entryDx=0;entryDy=0;strokeColor=#000000;fontSize=24;fillColor=#FF0000;" edge="1" parent="1" source="JyVU8bnQdRgN0_U0z4LO-79" target="JyVU8bnQdRgN0_U0z4LO-83">
          <mxGeometry relative="1" as="geometry" />
        </mxCell>
        <mxCell id="JyVU8bnQdRgN0_U0z4LO-79" value="&lt;font style=&quot;font-size: 24px;&quot;&gt;i = 5&lt;/font&gt;" style="rhombus;whiteSpace=wrap;html=1;fillColor=#fff2cc;strokeColor=#d6b656;fontSize=16;" parent="1" vertex="1">
          <mxGeometry x="90" y="1200" width="80" height="60" as="geometry" />
        </mxCell>
        <mxCell id="JyVU8bnQdRgN0_U0z4LO-80" style="edgeStyle=orthogonalEdgeStyle;rounded=0;orthogonalLoop=1;jettySize=auto;html=1;entryX=0.5;entryY=0;entryDx=0;entryDy=0;fontSize=16;" parent="1" source="JyVU8bnQdRgN0_U0z4LO-81" target="JyVU8bnQdRgN0_U0z4LO-79" edge="1">
          <mxGeometry relative="1" as="geometry" />
        </mxCell>
        <mxCell id="JyVU8bnQdRgN0_U0z4LO-81" value="&lt;font style=&quot;font-size: 24px;&quot;&gt;I + 1&lt;/font&gt;" style="rounded=0;whiteSpace=wrap;html=1;fillColor=#dae8fc;strokeColor=#6c8ebf;fontSize=16;" parent="1" vertex="1">
          <mxGeometry x="95" y="1138" width="70" height="31" as="geometry" />
        </mxCell>
        <mxCell id="JyVU8bnQdRgN0_U0z4LO-82" style="edgeStyle=orthogonalEdgeStyle;rounded=0;orthogonalLoop=1;jettySize=auto;html=1;exitX=0.5;exitY=1;exitDx=0;exitDy=0;entryX=0.5;entryY=0;entryDx=0;entryDy=0;strokeColor=#000000;fontSize=16;fontColor=#000000;fillColor=#A680B8;" parent="1" source="JyVU8bnQdRgN0_U0z4LO-83" target="JyVU8bnQdRgN0_U0z4LO-85" edge="1">
          <mxGeometry relative="1" as="geometry" />
        </mxCell>
        <mxCell id="JyVU8bnQdRgN0_U0z4LO-83" value="&lt;font style=&quot;font-size: 24px;&quot;&gt;Définit les valeurs permettant de convertir des niveaux de gris en °C&lt;br&gt;--&amp;gt; PixelMin / PixelMax&lt;br style=&quot;&quot;&gt;--&amp;gt; TempMin / TempMax&lt;/font&gt;" style="rounded=0;whiteSpace=wrap;html=1;fillColor=#dae8fc;strokeColor=#6c8ebf;fontSize=16;" parent="1" vertex="1">
          <mxGeometry x="-152.5" y="1280" width="565" height="130" as="geometry" />
        </mxCell>
        <mxCell id="JyVU8bnQdRgN0_U0z4LO-84" style="edgeStyle=orthogonalEdgeStyle;rounded=0;orthogonalLoop=1;jettySize=auto;html=1;exitX=0.5;exitY=1;exitDx=0;exitDy=0;entryX=0.5;entryY=0;entryDx=0;entryDy=0;strokeColor=#000000;fontSize=16;fontColor=#000000;fillColor=#A680B8;" parent="1" source="JyVU8bnQdRgN0_U0z4LO-85" target="JyVU8bnQdRgN0_U0z4LO-98" edge="1">
          <mxGeometry relative="1" as="geometry" />
        </mxCell>
        <mxCell id="JyVU8bnQdRgN0_U0z4LO-85" value="" style="swimlane;startSize=0;fontSize=16;strokeColor=#990000;" parent="1" vertex="1">
          <mxGeometry x="-470" y="1430" width="1200" height="590" as="geometry" />
        </mxCell>
        <mxCell id="JyVU8bnQdRgN0_U0z4LO-86" value="&lt;font style=&quot;font-size: 16px;&quot;&gt;Température Plateau chauffant&lt;/font&gt;" style="text;html=1;align=center;verticalAlign=middle;resizable=0;points=[];autosize=1;strokeColor=none;fillColor=none;fontSize=16;" parent="JyVU8bnQdRgN0_U0z4LO-85" vertex="1">
          <mxGeometry x="960" width="240" height="30" as="geometry" />
        </mxCell>
        <mxCell id="JyVU8bnQdRgN0_U0z4LO-87" style="edgeStyle=orthogonalEdgeStyle;rounded=0;orthogonalLoop=1;jettySize=auto;html=1;exitX=0.5;exitY=1;exitDx=0;exitDy=0;entryX=0.5;entryY=0;entryDx=0;entryDy=0;fontSize=16;" parent="JyVU8bnQdRgN0_U0z4LO-85" source="JyVU8bnQdRgN0_U0z4LO-88" target="JyVU8bnQdRgN0_U0z4LO-94" edge="1">
          <mxGeometry relative="1" as="geometry" />
        </mxCell>
        <mxCell id="JyVU8bnQdRgN0_U0z4LO-88" value="&lt;font style=&quot;font-size: 24px;&quot;&gt;Retourne la température maximale de l&#39;image thermique&lt;/font&gt;" style="rounded=0;whiteSpace=wrap;html=1;fillColor=#dae8fc;strokeColor=#6c8ebf;fontSize=16;" parent="JyVU8bnQdRgN0_U0z4LO-85" vertex="1">
          <mxGeometry x="325" y="20" width="550" height="69" as="geometry" />
        </mxCell>
        <mxCell id="JyVU8bnQdRgN0_U0z4LO-89" value="&lt;font style=&quot;font-size: 24px;&quot;&gt;/!\&lt;br style=&quot;&quot;&gt;Cette technique est sans doute à améliorer. En effet, si la température de la souris est supérieur à celle du plateau (ce qui en théorie ne doit pas arriver), alors la température du plateau est faussée.&lt;br style=&quot;&quot;&gt;/!\&lt;/font&gt;" style="rounded=1;whiteSpace=wrap;html=1;fillColor=#EA6B66;strokeColor=#b85450;fontSize=16;" parent="JyVU8bnQdRgN0_U0z4LO-85" vertex="1">
          <mxGeometry x="80" y="390" width="1040" height="170" as="geometry" />
        </mxCell>
        <mxCell id="JyVU8bnQdRgN0_U0z4LO-90" style="edgeStyle=orthogonalEdgeStyle;rounded=0;orthogonalLoop=1;jettySize=auto;html=1;exitX=0;exitY=0.5;exitDx=0;exitDy=0;entryX=0.5;entryY=0;entryDx=0;entryDy=0;fontSize=16;" parent="JyVU8bnQdRgN0_U0z4LO-85" source="JyVU8bnQdRgN0_U0z4LO-94" target="JyVU8bnQdRgN0_U0z4LO-95" edge="1">
          <mxGeometry relative="1" as="geometry">
            <mxPoint x="500" y="140" as="sourcePoint" />
            <Array as="points">
              <mxPoint x="280" y="195" />
            </Array>
          </mxGeometry>
        </mxCell>
        <mxCell id="JyVU8bnQdRgN0_U0z4LO-91" value="&lt;font style=&quot;font-size: 24px;&quot;&gt;OUI&lt;/font&gt;" style="edgeLabel;html=1;align=center;verticalAlign=middle;resizable=0;points=[];fontSize=16;" parent="JyVU8bnQdRgN0_U0z4LO-90" vertex="1" connectable="0">
          <mxGeometry x="-0.6462" relative="1" as="geometry">
            <mxPoint x="-22" as="offset" />
          </mxGeometry>
        </mxCell>
        <mxCell id="JyVU8bnQdRgN0_U0z4LO-92" style="edgeStyle=orthogonalEdgeStyle;rounded=0;orthogonalLoop=1;jettySize=auto;html=1;exitX=1;exitY=0.5;exitDx=0;exitDy=0;entryX=0.5;entryY=0;entryDx=0;entryDy=0;fontSize=16;" parent="JyVU8bnQdRgN0_U0z4LO-85" source="JyVU8bnQdRgN0_U0z4LO-94" target="JyVU8bnQdRgN0_U0z4LO-96" edge="1">
          <mxGeometry relative="1" as="geometry">
            <mxPoint x="700" y="140" as="sourcePoint" />
            <Array as="points">
              <mxPoint x="950" y="195" />
            </Array>
          </mxGeometry>
        </mxCell>
        <mxCell id="JyVU8bnQdRgN0_U0z4LO-93" value="&lt;font style=&quot;font-size: 24px;&quot;&gt;NON&lt;/font&gt;" style="edgeLabel;html=1;align=center;verticalAlign=middle;resizable=0;points=[];fontSize=16;" parent="JyVU8bnQdRgN0_U0z4LO-92" vertex="1" connectable="0">
          <mxGeometry x="-0.304" y="2" relative="1" as="geometry">
            <mxPoint x="-17" y="2" as="offset" />
          </mxGeometry>
        </mxCell>
        <mxCell id="JyVU8bnQdRgN0_U0z4LO-94" value="&lt;font style=&quot;font-size: 24px;&quot;&gt;Température plateau&amp;nbsp;&lt;br&gt;comprise&amp;nbsp;dans les &lt;br&gt;seuils prédéfinis&lt;/font&gt;" style="rhombus;whiteSpace=wrap;html=1;fillColor=#fff2cc;strokeColor=#d6b656;fontSize=16;" parent="JyVU8bnQdRgN0_U0z4LO-85" vertex="1">
          <mxGeometry x="390" y="120" width="420" height="150" as="geometry" />
        </mxCell>
        <mxCell id="JyVU8bnQdRgN0_U0z4LO-95" value="&lt;font style=&quot;font-size: 24px;&quot;&gt;Affiche la température avec couleur verte&lt;/font&gt;" style="rounded=0;whiteSpace=wrap;html=1;fillColor=#dae8fc;strokeColor=#6c8ebf;fontSize=16;" parent="JyVU8bnQdRgN0_U0z4LO-85" vertex="1">
          <mxGeometry x="160" y="270" width="240" height="90" as="geometry" />
        </mxCell>
        <mxCell id="JyVU8bnQdRgN0_U0z4LO-96" value="&lt;font style=&quot;font-size: 24px;&quot;&gt;Affiche la température avec color rouge ET déclenche alarme&lt;/font&gt;" style="rounded=0;whiteSpace=wrap;html=1;fillColor=#dae8fc;strokeColor=#6c8ebf;fontSize=16;" parent="JyVU8bnQdRgN0_U0z4LO-85" vertex="1">
          <mxGeometry x="810" y="250" width="280" height="120" as="geometry" />
        </mxCell>
        <mxCell id="7dF-0noHIkKO-9LLiGla-12" style="edgeStyle=orthogonalEdgeStyle;rounded=0;orthogonalLoop=1;jettySize=auto;html=1;exitX=0.5;exitY=1;exitDx=0;exitDy=0;entryX=0.5;entryY=0;entryDx=0;entryDy=0;strokeColor=#000000;fontSize=24;fillColor=#FF0000;" edge="1" parent="1" source="JyVU8bnQdRgN0_U0z4LO-98" target="JyVU8bnQdRgN0_U0z4LO-101">
          <mxGeometry relative="1" as="geometry" />
        </mxCell>
        <mxCell id="JyVU8bnQdRgN0_U0z4LO-98" value="&lt;font style=&quot;font-size: 24px;&quot;&gt;Efface les températures des souris précédemment acquises&lt;/font&gt;" style="rounded=0;whiteSpace=wrap;html=1;fillColor=#dae8fc;strokeColor=#6c8ebf;fontSize=16;" parent="1" vertex="1">
          <mxGeometry x="-202.5" y="2040" width="665" height="50" as="geometry" />
        </mxCell>
        <mxCell id="JyVU8bnQdRgN0_U0z4LO-99" style="edgeStyle=orthogonalEdgeStyle;rounded=0;orthogonalLoop=1;jettySize=auto;html=1;exitX=0;exitY=0.5;exitDx=0;exitDy=0;entryX=0.5;entryY=0;entryDx=0;entryDy=0;fontSize=16;" parent="1" source="JyVU8bnQdRgN0_U0z4LO-101" target="JyVU8bnQdRgN0_U0z4LO-106" edge="1">
          <mxGeometry relative="1" as="geometry">
            <mxPoint x="930" y="2363" as="sourcePoint" />
          </mxGeometry>
        </mxCell>
        <mxCell id="JyVU8bnQdRgN0_U0z4LO-100" value="&lt;font style=&quot;font-size: 24px;&quot;&gt;OUI&lt;/font&gt;" style="edgeLabel;html=1;align=center;verticalAlign=middle;resizable=0;points=[];fontSize=16;" parent="JyVU8bnQdRgN0_U0z4LO-99" vertex="1" connectable="0">
          <mxGeometry x="0.0708" y="1" relative="1" as="geometry">
            <mxPoint x="20" y="-1" as="offset" />
          </mxGeometry>
        </mxCell>
        <mxCell id="JyVU8bnQdRgN0_U0z4LO-101" value="&lt;font style=&quot;font-size: 24px;&quot;&gt;ROI Mode automatique&lt;/font&gt;" style="rhombus;whiteSpace=wrap;html=1;fillColor=#fff2cc;strokeColor=#d6b656;fontSize=16;" parent="1" vertex="1">
          <mxGeometry x="30" y="2110" width="200" height="120" as="geometry" />
        </mxCell>
        <mxCell id="JyVU8bnQdRgN0_U0z4LO-102" style="edgeStyle=orthogonalEdgeStyle;rounded=0;orthogonalLoop=1;jettySize=auto;html=1;exitX=0;exitY=0.5;exitDx=0;exitDy=0;entryX=0.5;entryY=0;entryDx=0;entryDy=0;fontSize=16;" parent="1" source="JyVU8bnQdRgN0_U0z4LO-106" target="JyVU8bnQdRgN0_U0z4LO-108" edge="1">
          <mxGeometry relative="1" as="geometry" />
        </mxCell>
        <mxCell id="JyVU8bnQdRgN0_U0z4LO-103" value="&lt;font style=&quot;font-size: 24px;&quot;&gt;NON&lt;/font&gt;" style="edgeLabel;html=1;align=center;verticalAlign=middle;resizable=0;points=[];fontSize=16;" parent="JyVU8bnQdRgN0_U0z4LO-102" vertex="1" connectable="0">
          <mxGeometry x="-0.3385" y="-2" relative="1" as="geometry">
            <mxPoint x="39" y="2" as="offset" />
          </mxGeometry>
        </mxCell>
        <mxCell id="JyVU8bnQdRgN0_U0z4LO-104" style="edgeStyle=orthogonalEdgeStyle;rounded=0;orthogonalLoop=1;jettySize=auto;html=1;exitX=1;exitY=0.5;exitDx=0;exitDy=0;entryX=0.563;entryY=0;entryDx=0;entryDy=0;entryPerimeter=0;strokeColor=#000000;fontSize=16;fontColor=#000000;fillColor=#A680B8;" parent="1" source="JyVU8bnQdRgN0_U0z4LO-106" target="JyVU8bnQdRgN0_U0z4LO-125" edge="1">
          <mxGeometry relative="1" as="geometry" />
        </mxCell>
        <mxCell id="JyVU8bnQdRgN0_U0z4LO-105" value="&lt;font style=&quot;font-size: 24px;&quot;&gt;OUI&lt;/font&gt;" style="edgeLabel;html=1;align=center;verticalAlign=middle;resizable=0;points=[];fontSize=16;fontColor=#000000;" parent="JyVU8bnQdRgN0_U0z4LO-104" vertex="1" connectable="0">
          <mxGeometry x="-0.3109" y="-1" relative="1" as="geometry">
            <mxPoint x="-56" y="-1" as="offset" />
          </mxGeometry>
        </mxCell>
        <mxCell id="JyVU8bnQdRgN0_U0z4LO-106" value="&lt;font style=&quot;font-size: 24px;&quot;&gt;Souris en &lt;br style=&quot;&quot;&gt;mouvement&lt;/font&gt;" style="rhombus;whiteSpace=wrap;html=1;fillColor=#fff2cc;strokeColor=#d6b656;fontSize=16;" parent="1" vertex="1">
          <mxGeometry x="-130" y="2210" width="200" height="100" as="geometry" />
        </mxCell>
        <mxCell id="7dF-0noHIkKO-9LLiGla-11" style="edgeStyle=orthogonalEdgeStyle;rounded=0;orthogonalLoop=1;jettySize=auto;html=1;exitX=0.5;exitY=1;exitDx=0;exitDy=0;entryX=0.5;entryY=0;entryDx=0;entryDy=0;strokeColor=#000000;fontSize=24;fillColor=#FF0000;" edge="1" parent="1" source="JyVU8bnQdRgN0_U0z4LO-108" target="JyVU8bnQdRgN0_U0z4LO-110">
          <mxGeometry relative="1" as="geometry" />
        </mxCell>
        <mxCell id="JyVU8bnQdRgN0_U0z4LO-108" value="&lt;font style=&quot;font-size: 24px;&quot;&gt;Créée une image noire de dimension 382x288&lt;/font&gt;" style="rounded=0;whiteSpace=wrap;html=1;fillColor=#dae8fc;strokeColor=#6c8ebf;fontSize=16;" parent="1" vertex="1">
          <mxGeometry x="-557.25" y="2320" width="503" height="42" as="geometry" />
        </mxCell>
        <mxCell id="JyVU8bnQdRgN0_U0z4LO-109" style="edgeStyle=orthogonalEdgeStyle;rounded=0;orthogonalLoop=1;jettySize=auto;html=1;exitX=0.5;exitY=1;exitDx=0;exitDy=0;entryX=0.5;entryY=0;entryDx=0;entryDy=0;strokeColor=#000000;fontSize=16;fontColor=#000000;fillColor=#A680B8;" parent="1" source="JyVU8bnQdRgN0_U0z4LO-110" target="JyVU8bnQdRgN0_U0z4LO-112" edge="1">
          <mxGeometry relative="1" as="geometry" />
        </mxCell>
        <mxCell id="JyVU8bnQdRgN0_U0z4LO-110" value="&lt;font style=&quot;font-size: 24px;&quot;&gt;i = nombre de souris détectée&lt;/font&gt;" style="rounded=0;whiteSpace=wrap;html=1;fillColor=#dae8fc;strokeColor=#6c8ebf;fontSize=16;" parent="1" vertex="1">
          <mxGeometry x="-489.5" y="2380" width="367.5" height="30" as="geometry" />
        </mxCell>
        <mxCell id="JyVU8bnQdRgN0_U0z4LO-111" style="edgeStyle=orthogonalEdgeStyle;rounded=0;orthogonalLoop=1;jettySize=auto;html=1;exitX=0.5;exitY=1;exitDx=0;exitDy=0;entryX=0.5;entryY=0;entryDx=0;entryDy=0;strokeColor=#000000;fontSize=16;fontColor=#000000;fillColor=#A680B8;" parent="1" source="JyVU8bnQdRgN0_U0z4LO-112" target="JyVU8bnQdRgN0_U0z4LO-140" edge="1">
          <mxGeometry relative="1" as="geometry">
            <Array as="points">
              <mxPoint x="-300" y="2890" />
              <mxPoint x="-300" y="2930" />
              <mxPoint x="280" y="2930" />
            </Array>
          </mxGeometry>
        </mxCell>
        <mxCell id="JyVU8bnQdRgN0_U0z4LO-112" value="" style="swimlane;startSize=0;fillColor=#f5f5f5;strokeColor=#990000;fontColor=#333333;fontSize=16;" parent="1" vertex="1">
          <mxGeometry x="-695.75" y="2420" width="795.75" height="470" as="geometry" />
        </mxCell>
        <mxCell id="JyVU8bnQdRgN0_U0z4LO-113" style="edgeStyle=orthogonalEdgeStyle;rounded=0;orthogonalLoop=1;jettySize=auto;html=1;exitX=0.5;exitY=1;exitDx=0;exitDy=0;entryX=0.5;entryY=0;entryDx=0;entryDy=0;strokeColor=#000000;fontSize=16;fontColor=#000000;fillColor=#A680B8;" parent="JyVU8bnQdRgN0_U0z4LO-112" source="JyVU8bnQdRgN0_U0z4LO-114" target="JyVU8bnQdRgN0_U0z4LO-116" edge="1">
          <mxGeometry relative="1" as="geometry" />
        </mxCell>
        <mxCell id="JyVU8bnQdRgN0_U0z4LO-114" value="&lt;font style=&quot;font-size: 24px;&quot;&gt;Convertit l&#39;image en niveau de gris (au cas où image est RGB)&lt;/font&gt;" style="rounded=0;whiteSpace=wrap;html=1;fillColor=#dae8fc;strokeColor=#6c8ebf;fontSize=16;" parent="JyVU8bnQdRgN0_U0z4LO-112" vertex="1">
          <mxGeometry x="11.5" y="70" width="768.5" height="40" as="geometry" />
        </mxCell>
        <mxCell id="JyVU8bnQdRgN0_U0z4LO-115" style="edgeStyle=orthogonalEdgeStyle;rounded=0;orthogonalLoop=1;jettySize=auto;html=1;exitX=0.5;exitY=1;exitDx=0;exitDy=0;entryX=0.5;entryY=0;entryDx=0;entryDy=0;fontSize=16;" parent="JyVU8bnQdRgN0_U0z4LO-112" source="JyVU8bnQdRgN0_U0z4LO-116" target="JyVU8bnQdRgN0_U0z4LO-118" edge="1">
          <mxGeometry relative="1" as="geometry" />
        </mxCell>
        <mxCell id="JyVU8bnQdRgN0_U0z4LO-116" value="&lt;font style=&quot;font-size: 24px;&quot;&gt;Pour chaque pixel de l&#39;image si les coordonnées du pixel sont inscrites dans la &lt;b style=&quot;&quot;&gt;&lt;u style=&quot;&quot;&gt;liste des masks de souris&lt;/u&gt;&lt;/b&gt; alors le pixel prend les valeurs en niveaux gris de l&#39;image d&#39;origine. Sinon le pixel est noir&lt;/font&gt;" style="rounded=0;whiteSpace=wrap;html=1;fillColor=#dae8fc;strokeColor=#6c8ebf;fontSize=16;" parent="JyVU8bnQdRgN0_U0z4LO-112" vertex="1">
          <mxGeometry x="11.5" y="130" width="768.5" height="100" as="geometry" />
        </mxCell>
        <mxCell id="JyVU8bnQdRgN0_U0z4LO-117" style="edgeStyle=orthogonalEdgeStyle;rounded=0;orthogonalLoop=1;jettySize=auto;html=1;exitX=0.5;exitY=1;exitDx=0;exitDy=0;entryX=0.5;entryY=0;entryDx=0;entryDy=0;fontSize=16;" parent="JyVU8bnQdRgN0_U0z4LO-112" source="JyVU8bnQdRgN0_U0z4LO-118" target="JyVU8bnQdRgN0_U0z4LO-121" edge="1">
          <mxGeometry relative="1" as="geometry" />
        </mxCell>
        <mxCell id="JyVU8bnQdRgN0_U0z4LO-118" value="&lt;font style=&quot;font-size: 24px;&quot;&gt;Calcule la moyenne des pixels dans l&#39;image acquise (outre les pixels noirs)&lt;/font&gt;" style="rounded=0;whiteSpace=wrap;html=1;fillColor=#dae8fc;strokeColor=#6c8ebf;fontSize=16;" parent="JyVU8bnQdRgN0_U0z4LO-112" vertex="1">
          <mxGeometry x="11.5" y="250" width="768.5" height="63" as="geometry" />
        </mxCell>
        <mxCell id="JyVU8bnQdRgN0_U0z4LO-119" value="&lt;font style=&quot;font-size: 24px;&quot;&gt;Affiche à l&#39;utilisateur la température de la souris en fonction de la couleur du mask appliquée&lt;/font&gt;" style="rounded=0;whiteSpace=wrap;html=1;fillColor=#dae8fc;strokeColor=#6c8ebf;fontSize=16;" parent="JyVU8bnQdRgN0_U0z4LO-112" vertex="1">
          <mxGeometry x="11.5" y="390" width="768.5" height="67" as="geometry" />
        </mxCell>
        <mxCell id="JyVU8bnQdRgN0_U0z4LO-120" style="edgeStyle=orthogonalEdgeStyle;rounded=0;orthogonalLoop=1;jettySize=auto;html=1;exitX=0.5;exitY=1;exitDx=0;exitDy=0;entryX=0.5;entryY=0;entryDx=0;entryDy=0;fontSize=16;" parent="JyVU8bnQdRgN0_U0z4LO-112" source="JyVU8bnQdRgN0_U0z4LO-121" target="JyVU8bnQdRgN0_U0z4LO-119" edge="1">
          <mxGeometry relative="1" as="geometry" />
        </mxCell>
        <mxCell id="JyVU8bnQdRgN0_U0z4LO-121" value="&lt;font style=&quot;font-size: 24px;&quot;&gt;Convertit la moyenne des pixels acquise précédemment en °C&lt;/font&gt;" style="rounded=0;whiteSpace=wrap;html=1;fillColor=#dae8fc;strokeColor=#6c8ebf;fontSize=16;" parent="JyVU8bnQdRgN0_U0z4LO-112" vertex="1">
          <mxGeometry x="11.5" y="330" width="768.5" height="37" as="geometry" />
        </mxCell>
        <mxCell id="JyVU8bnQdRgN0_U0z4LO-122" style="edgeStyle=orthogonalEdgeStyle;rounded=0;orthogonalLoop=1;jettySize=auto;html=1;exitX=0.5;exitY=1;exitDx=0;exitDy=0;entryX=0.5;entryY=0;entryDx=0;entryDy=0;fontSize=16;" parent="JyVU8bnQdRgN0_U0z4LO-112" source="JyVU8bnQdRgN0_U0z4LO-123" target="JyVU8bnQdRgN0_U0z4LO-114" edge="1">
          <mxGeometry relative="1" as="geometry" />
        </mxCell>
        <mxCell id="JyVU8bnQdRgN0_U0z4LO-123" value="&lt;font style=&quot;font-size: 24px;&quot;&gt;La liste des masks est acquise via l&#39;IA qui tourne sur Python en parallèle&lt;/font&gt;" style="rounded=0;whiteSpace=wrap;html=1;fillColor=#e1d5e7;strokeColor=#9673a6;fontSize=16;" parent="JyVU8bnQdRgN0_U0z4LO-112" vertex="1">
          <mxGeometry x="10" y="20" width="770" height="30" as="geometry" />
        </mxCell>
        <mxCell id="JyVU8bnQdRgN0_U0z4LO-124" style="edgeStyle=orthogonalEdgeStyle;rounded=0;orthogonalLoop=1;jettySize=auto;html=1;exitX=0.5;exitY=1;exitDx=0;exitDy=0;strokeColor=#000000;fontSize=16;fontColor=#000000;fillColor=#A680B8;" parent="1" source="JyVU8bnQdRgN0_U0z4LO-125" target="JyVU8bnQdRgN0_U0z4LO-140" edge="1">
          <mxGeometry relative="1" as="geometry" />
        </mxCell>
        <mxCell id="JyVU8bnQdRgN0_U0z4LO-125" value="" style="swimlane;startSize=0;fillColor=#EA6B66;fontSize=16;strokeColor=#990000;" parent="1" vertex="1">
          <mxGeometry x="120" y="2320" width="320" height="477" as="geometry" />
        </mxCell>
        <mxCell id="JyVU8bnQdRgN0_U0z4LO-126" style="edgeStyle=orthogonalEdgeStyle;rounded=0;orthogonalLoop=1;jettySize=auto;html=1;exitX=0.5;exitY=1;exitDx=0;exitDy=0;fontSize=16;" parent="JyVU8bnQdRgN0_U0z4LO-125" source="JyVU8bnQdRgN0_U0z4LO-127" target="JyVU8bnQdRgN0_U0z4LO-129" edge="1">
          <mxGeometry relative="1" as="geometry" />
        </mxCell>
        <mxCell id="JyVU8bnQdRgN0_U0z4LO-127" value="&lt;font style=&quot;font-size: 24px;&quot;&gt;La valeur moyenne des pixels des souris est acquise via L&#39;IA qui tourne sur Python en parallèle&lt;/font&gt;" style="whiteSpace=wrap;html=1;fillColor=#e1d5e7;strokeColor=#9673a6;fontSize=16;" parent="JyVU8bnQdRgN0_U0z4LO-125" vertex="1">
          <mxGeometry x="40" y="30" width="240" height="170" as="geometry" />
        </mxCell>
        <mxCell id="JyVU8bnQdRgN0_U0z4LO-128" style="edgeStyle=orthogonalEdgeStyle;rounded=0;orthogonalLoop=1;jettySize=auto;html=1;exitX=0.5;exitY=1;exitDx=0;exitDy=0;entryX=0.5;entryY=0;entryDx=0;entryDy=0;fontSize=16;" parent="JyVU8bnQdRgN0_U0z4LO-125" source="JyVU8bnQdRgN0_U0z4LO-129" target="JyVU8bnQdRgN0_U0z4LO-130" edge="1">
          <mxGeometry relative="1" as="geometry" />
        </mxCell>
        <mxCell id="JyVU8bnQdRgN0_U0z4LO-129" value="&lt;font style=&quot;font-size: 24px;&quot;&gt;Convertit la moyenne des pixels en °C&lt;/font&gt;" style="rounded=0;whiteSpace=wrap;html=1;fillColor=#dae8fc;strokeColor=#6c8ebf;fontSize=16;" parent="JyVU8bnQdRgN0_U0z4LO-125" vertex="1">
          <mxGeometry x="40" y="220" width="240" height="93" as="geometry" />
        </mxCell>
        <mxCell id="JyVU8bnQdRgN0_U0z4LO-130" value="&lt;font style=&quot;font-size: 24px;&quot;&gt;Affiche la température des souris à l&#39;utilisateur&lt;/font&gt;" style="rounded=0;whiteSpace=wrap;html=1;fillColor=#dae8fc;strokeColor=#6c8ebf;fontSize=16;" parent="JyVU8bnQdRgN0_U0z4LO-125" vertex="1">
          <mxGeometry x="40" y="340" width="240" height="103" as="geometry" />
        </mxCell>
        <mxCell id="JyVU8bnQdRgN0_U0z4LO-131" style="edgeStyle=orthogonalEdgeStyle;rounded=0;orthogonalLoop=1;jettySize=auto;html=1;exitX=0.5;exitY=1;exitDx=0;exitDy=0;entryX=0.5;entryY=0;entryDx=0;entryDy=0;strokeColor=#000000;fontSize=16;fontColor=#000000;fillColor=#A680B8;" parent="1" source="JyVU8bnQdRgN0_U0z4LO-132" target="JyVU8bnQdRgN0_U0z4LO-140" edge="1">
          <mxGeometry relative="1" as="geometry">
            <Array as="points">
              <mxPoint x="612" y="2930" />
              <mxPoint x="280" y="2930" />
            </Array>
          </mxGeometry>
        </mxCell>
        <mxCell id="JyVU8bnQdRgN0_U0z4LO-132" value="" style="swimlane;startSize=0;fillColor=#EA6B66;fontSize=16;strokeColor=#990000;" parent="1" vertex="1">
          <mxGeometry x="494" y="2240" width="236" height="530" as="geometry" />
        </mxCell>
        <mxCell id="JyVU8bnQdRgN0_U0z4LO-133" style="edgeStyle=orthogonalEdgeStyle;rounded=0;orthogonalLoop=1;jettySize=auto;html=1;exitX=0.5;exitY=1;exitDx=0;exitDy=0;entryX=0.5;entryY=0;entryDx=0;entryDy=0;fontSize=16;" parent="JyVU8bnQdRgN0_U0z4LO-132" source="JyVU8bnQdRgN0_U0z4LO-134" target="JyVU8bnQdRgN0_U0z4LO-135" edge="1">
          <mxGeometry relative="1" as="geometry" />
        </mxCell>
        <mxCell id="JyVU8bnQdRgN0_U0z4LO-134" value="&lt;font style=&quot;font-size: 24px;&quot;&gt;Communique avec PIX Connect pour obtenir la température de toutes les zones créées précédemment.&lt;/font&gt;" style="whiteSpace=wrap;html=1;fillColor=#dae8fc;strokeColor=#6c8ebf;fontSize=16;" parent="JyVU8bnQdRgN0_U0z4LO-132" vertex="1">
          <mxGeometry x="26" y="40" width="180" height="290" as="geometry" />
        </mxCell>
        <mxCell id="JyVU8bnQdRgN0_U0z4LO-135" value="&lt;font style=&quot;font-size: 24px;&quot;&gt;Affiche la température à l&#39;utilisateur&lt;/font&gt;" style="rounded=0;whiteSpace=wrap;html=1;fillColor=#dae8fc;strokeColor=#6c8ebf;fontSize=16;" parent="JyVU8bnQdRgN0_U0z4LO-132" vertex="1">
          <mxGeometry x="31" y="400" width="170" height="113" as="geometry" />
        </mxCell>
        <mxCell id="JyVU8bnQdRgN0_U0z4LO-136" style="edgeStyle=orthogonalEdgeStyle;rounded=0;orthogonalLoop=1;jettySize=auto;html=1;entryX=0.5;entryY=0;entryDx=0;entryDy=0;fontSize=16;" parent="1" source="JyVU8bnQdRgN0_U0z4LO-137" target="JyVU8bnQdRgN0_U0z4LO-2" edge="1">
          <mxGeometry relative="1" as="geometry" />
        </mxCell>
        <mxCell id="JyVU8bnQdRgN0_U0z4LO-137" value="&lt;font style=&quot;font-size: 24px;&quot;&gt;Debut Timer&lt;/font&gt;" style="rounded=1;whiteSpace=wrap;html=1;fillColor=#d5e8d4;strokeColor=#82b366;fontSize=16;" parent="1" vertex="1">
          <mxGeometry x="165" y="-1140" width="150" height="39" as="geometry" />
        </mxCell>
        <mxCell id="JyVU8bnQdRgN0_U0z4LO-138" style="edgeStyle=orthogonalEdgeStyle;rounded=0;orthogonalLoop=1;jettySize=auto;html=1;exitX=1;exitY=0.5;exitDx=0;exitDy=0;entryX=0.5;entryY=0;entryDx=0;entryDy=0;fontSize=16;" parent="1" source="JyVU8bnQdRgN0_U0z4LO-101" target="JyVU8bnQdRgN0_U0z4LO-132" edge="1">
          <mxGeometry relative="1" as="geometry" />
        </mxCell>
        <mxCell id="JyVU8bnQdRgN0_U0z4LO-139" value="&lt;font style=&quot;font-size: 24px;&quot;&gt;NON&lt;/font&gt;" style="edgeLabel;html=1;align=center;verticalAlign=middle;resizable=0;points=[];fontSize=16;" parent="JyVU8bnQdRgN0_U0z4LO-138" vertex="1" connectable="0">
          <mxGeometry x="-0.1164" relative="1" as="geometry">
            <mxPoint x="-114" as="offset" />
          </mxGeometry>
        </mxCell>
        <mxCell id="JyVU8bnQdRgN0_U0z4LO-140" value="&lt;font style=&quot;font-size: 24px;&quot;&gt;Fin Timer&lt;/font&gt;" style="rounded=1;whiteSpace=wrap;html=1;fontSize=16;fontColor=#000000;fillColor=#EA6B66;" parent="1" vertex="1">
          <mxGeometry x="220" y="2950" width="120" height="60" as="geometry" />
        </mxCell>
        <mxCell id="JyVU8bnQdRgN0_U0z4LO-141" value="&lt;font style=&quot;font-size: 24px;&quot;&gt;Ne fonctionne pas (erreurs récurrentes dues à de potentielles collisions des données dans la communication bidirectionnelle entre PA et PIX Connect)&lt;/font&gt;" style="rounded=1;whiteSpace=wrap;html=1;fontSize=16;fontColor=#000000;fillColor=#EA6B66;" parent="1" vertex="1">
          <mxGeometry x="340" y="-830" width="630" height="110" as="geometry" />
        </mxCell>
        <mxCell id="JZdSYMgTb-eFEysoJpl1-1" value="&lt;font color=&quot;#ff0000&quot; style=&quot;font-size: 22px;&quot;&gt;&lt;b&gt;&lt;u&gt;Timer 1 (part 1)&lt;/u&gt;&lt;/b&gt;&lt;/font&gt;" style="text;html=1;strokeColor=none;fillColor=none;align=center;verticalAlign=middle;whiteSpace=wrap;rounded=0;" parent="1" vertex="1">
          <mxGeometry x="-827" y="-1164.5" width="187" height="30" as="geometry" />
        </mxCell>
        <mxCell id="FYO5T30fDV3S0oEtN9Rt-5" style="edgeStyle=orthogonalEdgeStyle;rounded=0;orthogonalLoop=1;jettySize=auto;html=1;exitX=0.5;exitY=1;exitDx=0;exitDy=0;fontSize=24;" parent="1" source="JyVU8bnQdRgN0_U0z4LO-67" edge="1">
          <mxGeometry relative="1" as="geometry">
            <mxPoint x="277.5" y="960" as="targetPoint" />
          </mxGeometry>
        </mxCell>
      </root>
    </mxGraphModel>
  </diagram>
</mxfile>
